<svg width="901" height="901" viewBox="0 0 901 901" fill="none" xmlns="http://www.w3.org/2000/svg">
<rect width="901" height="901" rx="148" fill="black"/>
<path d="M250 651C250 595.772 294.772 551 350 551H450V651C450 706.228 405.228 751 350 751C294.772 751 250 706.228 250 651Z" fill="#24CB71"/>
<path d="M450 151V351H550C605.228 351 650 306.228 650 251C650 195.772 605.228 151 550 151H450Z" fill="#FF7237"/>
<path d="M549.167 551C604.395 551 649.167 506.228 649.167 451C649.167 395.772 604.395 351 549.167 351C493.939 351 449.167 395.772 449.167 451C449.167 506.228 493.939 551 549.167 551Z" fill="#00B6FF"/>
<path d="M250 251C250 306.228 294.772 351 350 351H450V151H350C294.772 151 250 195.772 250 251Z" fill="#FF3737"/>
<path d="M250 451C250 506.228 294.772 551 350 551H450V351H350C294.772 351 250 395.772 250 451Z" fill="#874FFF"/>
</svg>
